<?xml version="1.0" encoding="utf-8"?>
<!-- Generator: Adobe Illustrator 25.0.1, SVG Export Plug-In . SVG Version: 6.00 Build 0)  -->
<svg version="1.0" id="Layer_1" xmlns="http://www.w3.org/2000/svg" xmlns:xlink="http://www.w3.org/1999/xlink" x="0px" y="0px"
	 viewBox="0 0 844 570" style="enable-background:new 0 0 844 570;" xml:space="preserve">
<style type="text/css">
	.st0{fill:none;}
</style>
<path d="M657,242c10.9-3.1,22.9,1.4,29.8,10.2c-1.1,1.1-2.2,2.2-3.2,3.2c-4.7-5.5-10.7-11.2-18.5-10.7c-7.3-0.6-14.5,6.3-13.2,13.8
	c0.4,4.4,3.4,7.8,6.7,10.5c8.6,7,19.3,11.1,27.7,18.6c7.8,6.9,8.7,19,4.6,28.2c-3.8,8.3-13,13.5-22,13.1
	c-11.5,0.7-22.7-5.9-28.7-15.5c1.1-1.1,2.3-2.3,3.5-3.4c5.4,7.5,12.9,14.7,22.7,14.9c10.2,1.4,19.3-9.3,16.9-19.1
	c-1.2-5.2-5.7-8.6-9.9-11.5c-7.6-5-15.8-8.9-22.8-14.7c-6.7-6-9.9-16.1-6.7-24.7C645.8,248.8,650.7,244,657,242 M77.3,242.3
	c4.3,0,8.6,0,12.9,0c8.2,18.3,16.2,36.7,24.5,55c-2.2,4.8-4.4,9.6-6.5,14.4C97.9,288.5,87.8,265.3,77.3,242.3 M152.3,242.3
	c4.2,0,8.5,0,12.7,0c0,28.5,0,57,0,85.6c-4.2,0-8.5,0-12.7,0C152.3,299.3,152.3,270.8,152.3,242.3 M175.8,242.2c4.2,0,8.5,0,12.7,0
	c6.3,10.9,12.6,21.9,19,32.7c0.6,1.5,2.1,2.9,1.8,4.6c-1.9,3.4-4.1,6.5-6.1,9.9C193.8,273.9,184.9,258,175.8,242.2 M236.8,242.2
	c4.2,0,8.4,0,12.6,0c-9.4,15.7-19.1,31.4-28.6,47c-1.2,2.2-3.2,4.3-2.9,7c0,10.5,0,21.1,0,31.6c-4.2,0-8.4,0-12.6,0
	c0-11.4,0-22.8,0-34.2C215.9,276.6,226.2,259.3,236.8,242.2 M254,242.2c21.7,0,43.4,0,65.2,0c0,1,0,2.9,0,3.8c-8.8,0-17.5,0-26.3,0
	c0,27.3,0,54.5,0,81.8c-4.2,0-8.3,0-12.5,0c0-27.2,0-54.5,0-81.8H254C254,245.1,254,243.2,254,242.2 M332.7,242.2
	c4.2,0,8.5,0,12.7,0c0,12.8,0,25.7,0,38.5c13.9-0.2,27.8,0.1,41.8-0.1c-0.2-12.8,0-25.5-0.1-38.3c4.3,0,8.6,0,12.9,0
	c0,28.5,0,57.1,0,85.6c-4.3,0-8.6,0-12.9,0c0.1-14.4,0-28.7,0-43c-13.9,0-27.8,0-41.7,0c0,14.4,0,28.7,0,43.1c-4.2,0-8.5,0-12.7,0
	C332.7,299.3,332.7,270.8,332.7,242.2 M427,242.2c17.2,0,34.3,0,51.5,0c0,1,0,2.9,0,3.9h-38.9c0,11.6,0,23.1,0,34.6
	c11.2,0,22.4-0.3,33.5,0.2c-0.1,1-0.2,2.9-0.3,3.8c-11.1,0.1-22.2,0-33.2,0c0,13.1,0,26.1,0,39.2c13,0,25.9,0,38.9,0c0,1,0,3,0,3.9
	c-17.2,0-34.3,0-51.5,0C426.9,299.3,426.9,270.8,427,242.2 M496.2,242.2c9.9,0,19.7-0.2,29.6,0.2c7.6,0.6,16,2.6,21.1,8.8
	c5.1,5.3,5.4,13.7,3,20.3c-3.8,8.3-13,13.2-21.8,13.9c17.2,7.3,26.8,25.1,31.2,42.4c-4.3,0-8.6,0-12.9-0.1
	c-1.8-10.4-5.1-20.8-11.2-29.6c-2.7-4-6.4-7.2-10.8-9.1c-4.7-2.4-10.1-1.6-15.2-1.8c0,13.5,0,27.1,0,40.6c-4.3,0.1-8.7,0.1-13,0
	c0.1-28.5,0.1-57,0-85.5 M509.2,246.2c0,12.3,0,24.7,0,37c6.3-0.2,12.7,0.5,18.8-1.1c11.6-5.1,12.8-21.9,5.8-31.2
	C527.3,244.6,517.3,246.6,509.2,246.2 M577.7,242.4c17.3-0.1,34.6-0.1,51.9,0c0,0.9-0.1,2.8-0.1,3.8c-13,0.1-26,0-39,0
	c0.1,11.5,0,23.1,0,34.6c11,0,22,0,33,0c0,1,0,3.1,0,4.1c-11,0-22.1,0-33.1,0c0,13.1,0,26.1,0,39.2c13,0,25.9,0,38.9,0
	c0,1,0.1,2.9,0.2,3.9c-17.1,0-34.2,0.1-51.4,0l-0.4-0.5c-0.2-28.3,0-56.7-0.1-85 M734.2,242.5l4.8-0.1
	c12.1,28.6,24.3,57.1,36.4,85.7c-4.6,0-9.2-0.1-13.8,0c-4.5-10.4-8.5-21-13-31.4c-10.2,0.1-20.5,0.1-30.7,0
	c-4,10.4-8.4,20.8-12.2,31.2c-1.7,0.1-3.5,0.1-5.2,0.2C711.6,299.5,723.1,271.1,734.2,242.5 M733.1,257.6
	c-4.2,11.8-9.2,23.4-13.6,35.1c9.3,0,18.6,0,27.9,0C742.4,281.1,737.9,269.3,733.1,257.6 M68.5,250.6c4.3,9.1,8.2,18.3,12.2,27.5
	c0.5,16.6,0.1,33.3,0.2,50H68.5c0-25.8-0.2-51.6,0.1-77.5 M105.6,328.1c11.3-26,22.7-52,34.3-77.8c0,9.5,0.3,19.1-0.1,28.5
	c-6.9,16.4-14.4,32.6-21.5,49c-4.2,0.1-8.5,0.1-12.7,0.1L105.6,328.1z"/>
<rect x="47" y="227" class="st0" width="750" height="116"/>
</svg>
